<?xml version="1.0" encoding="UTF-8" standalone="no"?>
<svg
   xmlns:dc="http://purl.org/dc/elements/1.1/"
   xmlns:cc="http://creativecommons.org/ns#"
   xmlns:rdf="http://www.w3.org/1999/02/22-rdf-syntax-ns#"
   xmlns:svg="http://www.w3.org/2000/svg"
   xmlns="http://www.w3.org/2000/svg"
   xmlns:sodipodi="http://sodipodi.sourceforge.net/DTD/sodipodi-0.dtd"
   xmlns:inkscape="http://www.inkscape.org/namespaces/inkscape"
   width="1181"
   height="971"
   viewBox="0 0 91.057962 74.866402"
   version="1.1"
   id="svg10"
   sodipodi:docname="Wall's_(2010).svg"
   inkscape:version="0.92.3 (2405546, 2018-03-11)">
  <metadata
     id="metadata16">
    <rdf:RDF>
      <cc:Work
         rdf:about="">
        <dc:format>image/svg+xml</dc:format>
        <dc:type
           rdf:resource="http://purl.org/dc/dcmitype/StillImage" />
        <dc:title></dc:title>
      </cc:Work>
    </rdf:RDF>
  </metadata>
  <defs
     id="defs14" />
  <sodipodi:namedview
     pagecolor="#ffffff"
     bordercolor="#666666"
     borderopacity="1"
     objecttolerance="10"
     gridtolerance="10"
     guidetolerance="10"
     inkscape:pageopacity="0"
     inkscape:pageshadow="2"
     inkscape:window-width="1366"
     inkscape:window-height="745"
     id="namedview12"
     showgrid="false"
     inkscape:zoom="0.26700352"
     inkscape:cx="1253.3955"
     inkscape:cy="167.34841"
     inkscape:window-x="-8"
     inkscape:window-y="-8"
     inkscape:window-maximized="1"
     inkscape:current-layer="g8" />
  <g
     id="g8"
     style="clip-rule:evenodd;fill-rule:evenodd"
     transform="translate(0,-117.88974)">
    <g
       id="g1373"
       style="fill:#f40505;fill-opacity:1"
       transform="translate(0.15420479,1.8504575)">
      <path
         inkscape:connector-curvature="0"
         id="path839"
         d="m 23.170149,116.37328 c 9.433082,0 17.528166,3.80224 21.198122,6.61776 0.645975,0.49566 1.022246,0.43715 1.51824,0.10715 2.445104,-1.63291 9.8133,-6.66312 19.960769,-6.66312 12.250508,0 24.654288,6.18981 24.654288,19.67579 0,8.25527 -5.630248,16.86881 -15.28896,22.74636 -2.438524,1.4929 -5.300024,2.76951 -8.366762,3.86732 -1.749787,0.63305 -2.522065,-0.0901 -0.684787,-1.45213 4.525117,-3.36377 16.12044,-12.21002 16.12044,-23.28278 0,-7.52231 -6.974166,-15.04132 -19.008251,-15.04132 -9.179822,0 -15.96717,5.1459 -17.238071,6.01166 -0.65387,0.44636 -1.080792,0.37339 -1.634673,-0.1157 -3.325918,-2.95554 -10.084978,-6.13261 -17.926145,-6.13261 -9.565961,0 -18.1886132,5.257 -18.1886132,14.61073 0,17.04565 29.6109312,24.05191 36.7949392,24.05191 1.785972,0 17.641313,-5.52455 17.641313,-18.83632 0,-4.70678 -2.923992,-7.80432 -6.78603,-7.80432 -5.045449,0 -7.950365,4.23808 -9.917237,6.60067 -0.447314,0.53839 -1.138021,0.7803 -1.566259,-0.003 -1.742555,-3.1705 -5.15991,-6.69204 -9.818562,-6.69204 -4.137006,0 -6.609736,2.99827 -6.609736,6.29433 0,7.76553 10.806602,12.58867 15.854682,14.32807 0.975541,0.33263 0.964358,1.37654 -0.403899,1.2444 -7.178746,-0.68169 -25.010166,-6.10106 -25.010166,-17.67014 0,-4.7758 4.115955,-10.08671 12.325499,-10.08671 5.525655,0 10.763187,3.03311 13.845712,6.742 0.301938,0.3609 0.800563,0.31094 1.068952,0.0368 0.27102,-0.26427 6.701831,-6.55334 14.383148,-6.55334 5.49277,0 11.433499,3.74636 11.433499,11.64665 0,8.16127 -7.147169,16.33963 -13.171448,20.08336 -6.18084,3.8351 -12.075531,5.56333 -13.533908,5.44763 -23.757685,-1.9399 -44.7492531,-15.67831 -44.7492531,-31.86805 -0.0013155,-7.9726 6.0755892,-17.9114 23.1031571,-17.9114 z"
         style="fill:#f40505;fill-opacity:1;stroke-width:0.65759367" />
      <path
         inkscape:connector-curvature="0"
         d="m 81.538116,190.35914 c -2.338192,0 -3.942909,-0.98973 -5.313812,-2.92453 l 2.55067,-2.49226 c 0.66168,0.87149 1.534862,1.71815 2.692319,1.71815 0.801388,0 1.557177,-0.60518 1.557177,-1.47468 0,-0.89435 -0.588915,-1.35446 -1.345675,-1.62077 l -1.629943,-0.55748 c -2.173257,-0.74927 -3.683865,-2.34619 -3.683865,-4.78975 0,-2.92652 2.123777,-5.39394 5.029539,-5.39394 2.315876,0 3.803202,1.13782 5.148876,2.97522 l -2.572983,2.58863 c -0.590854,-0.87147 -1.417467,-1.81452 -2.527384,-1.81452 -0.848927,0 -1.487321,0.62903 -1.487321,1.5005 0,0.89437 0.755788,1.28094 1.465008,1.54725 l 1.699797,0.60518 c 2.125716,0.74927 3.449076,2.44156 3.449076,4.74005 v 0.0737 c 0,2.87783 -2.173258,5.31941 -5.031479,5.31941 z m -10.662544,-10.49671 -2.266398,-1.20836 2.691347,-6.77422 3.119211,1.6456 z M 58.549128,190.1435 v -17.07715 h 3.614009 v 13.49677 h 5.503 v 3.58038 z m -12.980367,0 v -17.07715 h 3.612074 v 13.49677 h 5.504937 v 3.58038 z m -3.409296,-1.01658 -8.289427,-16.7383 -8.359281,16.7383 3.23466,1.62075 1.440754,-3.26636 h 7.321163 l 1.439783,3.21768 z m -6.235506,-4.95966 h -4.22621 l 2.125719,-4.71624 z m -17.170674,6.62811 -3.920596,-9.57749 -3.920593,9.57749 -6.9427714,-16.83466 3.3054814,-1.59494 3.826481,10.1817 3.754689,-10.23237 3.919624,10.23237 3.826486,-10.1817 3.093009,1.5701 z"
         style="fill:#f40505;fill-opacity:1;stroke-width:0.98189372"
         id="path823" />
    </g>
  </g>
</svg>
